<svg width="183" height="132" viewBox="0 0 183 132" fill="none" xmlns="http://www.w3.org/2000/svg">
<path d="M182.6 77.3921H107.3V77.1447H107.309C107.449 62.5593 119.04 50.7997 133.322 50.7997H148.721C148.721 50.7997 148.777 50.7902 148.804 50.7902H176.111L182.6 50.7997V77.3921Z" fill="#1C1C1C"/>
<path d="M0 0.916253V27.4992H75.3007V27.2518L75.2914 27.2423C75.1517 12.6759 63.5605 0.916253 49.2787 0.916253H33.8797C33.8797 0.916253 33.8239 0.906738 33.7959 0.906738H6.48919L0 0.916253Z" fill="#1C1C1C"/>
<path d="M182.582 0.916329V27.4992H107.291V131.091H75.3194C75.3101 128.969 75.2915 126.828 75.3194 124.716V110.074C75.3194 92.1202 89.5081 77.5348 107.039 77.4016H75.3194V0.916329H182.582Z" fill="#1C1C1C"/>
</svg>
